<?xml version="1.0" encoding="UTF-8"?>
<svg version="1.1" xmlns="http://www.w3.org/2000/svg" width="94" height="88">
<path d="M0 0 C31.02 0 62.04 0 94 0 C94 29.04 94 58.08 94 88 C62.98 88 31.96 88 0 88 C0 58.96 0 29.92 0 0 Z " fill="#8F5A11" transform="translate(0,0)"/>
<path d="M0 0 C3.96 0 7.92 0 12 0 C12 0.66 12 1.32 12 2 C13.32 2 14.64 2 16 2 C16 3.98 16 5.96 16 8 C16.66 8 17.32 8 18 8 C18 11.96 18 15.92 18 20 C18.66 20 19.32 20 20 20 C20 23.96 20 27.92 20 32 C19.34 32 18.68 32 18 32 C18 32.66 18 33.32 18 34 C17.34 34 16.68 34 16 34 C16 34.66 16 35.32 16 36 C13.36 36 10.72 36 8 36 C8 37.32 8 38.64 8 40 C7.34 40 6.68 40 6 40 C6 47.26 6 54.52 6 62 C7.32 62 8.64 62 10 62 C10 63.32 10 64.64 10 66 C-6.5 66 -23 66 -40 66 C-40 64.68 -40 63.36 -40 62 C-38.68 62 -37.36 62 -36 62 C-36 55.4 -36 48.8 -36 42 C-36.66 42 -37.32 42 -38 42 C-38 38.04 -38 34.08 -38 30 C-37.34 30 -36.68 30 -36 30 C-36 29.34 -36 28.68 -36 28 C-35.34 28 -34.68 28 -34 28 C-34 27.34 -34 26.68 -34 26 C-33.34 26 -32.68 26 -32 26 C-32 25.34 -32 24.68 -32 24 C-24.08 24 -16.16 24 -8 24 C-8 18.72 -8 13.44 -8 8 C-6.68 8 -5.36 8 -4 8 C-4 7.34 -4 6.68 -4 6 C-3.34 6 -2.68 6 -2 6 C-2 5.34 -2 4.68 -2 4 C-1.34 4 -0.68 4 0 4 C0 2.68 0 1.36 0 0 Z " fill="#F2CE98" transform="translate(59,22)"/>
<path d="M0 0 C3.96 0 7.92 0 12 0 C12 0.66 12 1.32 12 2 C13.32 2 14.64 2 16 2 C16 3.98 16 5.96 16 8 C16.66 8 17.32 8 18 8 C18 11.96 18 15.92 18 20 C18.66 20 19.32 20 20 20 C20 23.96 20 27.92 20 32 C19.34 32 18.68 32 18 32 C18 32.66 18 33.32 18 34 C17.34 34 16.68 34 16 34 C16 34.66 16 35.32 16 36 C13.36 36 10.72 36 8 36 C8 37.32 8 38.64 8 40 C7.34 40 6.68 40 6 40 C6 47.26 6 54.52 6 62 C7.32 62 8.64 62 10 62 C10 63.32 10 64.64 10 66 C6.04 66 2.08 66 -2 66 C-2 64.68 -2 63.36 -2 62 C-3.32 62 -4.64 62 -6 62 C-6 56.06 -6 50.12 -6 44 C-4.02 44 -2.04 44 0 44 C0 43.34 0 42.68 0 42 C0.66 42 1.32 42 2 42 C2 41.34 2 40.68 2 40 C0.68 40 -0.64 40 -2 40 C-2 39.34 -2 38.68 -2 38 C-2.66 38 -3.32 38 -4 38 C-4 37.34 -4 36.68 -4 36 C-4.66 36 -5.32 36 -6 36 C-6 35.34 -6 34.68 -6 34 C-6.66 34 -7.32 34 -8 34 C-8 32.68 -8 31.36 -8 30 C-8.66 30 -9.32 30 -10 30 C-10 28.02 -10 26.04 -10 24 C-9.34 24 -8.68 24 -8 24 C-8 18.72 -8 13.44 -8 8 C-6.68 8 -5.36 8 -4 8 C-4 7.34 -4 6.68 -4 6 C-3.34 6 -2.68 6 -2 6 C-2 5.34 -2 4.68 -2 4 C-1.34 4 -0.68 4 0 4 C0 2.68 0 1.36 0 0 Z " fill="#D8A061" transform="translate(59,22)"/>
<path d="M0 0 C3.96 0 7.92 0 12 0 C12 0.66 12 1.32 12 2 C13.32 2 14.64 2 16 2 C16 3.98 16 5.96 16 8 C16.66 8 17.32 8 18 8 C18 11.3 18 14.6 18 18 C14.7 18 11.4 18 8 18 C8 17.34 8 16.68 8 16 C7.34 16 6.68 16 6 16 C6 16.66 6 17.32 6 18 C5.34 18 4.68 18 4 18 C4 18.66 4 19.32 4 20 C7.3 20 10.6 20 14 20 C14 20.66 14 21.32 14 22 C12.68 22 11.36 22 10 22 C10 22.66 10 23.32 10 24 C9.34 24 8.68 24 8 24 C8 25.98 8 27.96 8 30 C8.66 30 9.32 30 10 30 C10 30.66 10 31.32 10 32 C10.66 32 11.32 32 12 32 C12 32.66 12 33.32 12 34 C8.7 34 5.4 34 2 34 C2 33.34 2 32.68 2 32 C0.68 32 -0.64 32 -2 32 C-2 31.34 -2 30.68 -2 30 C-2.66 30 -3.32 30 -4 30 C-4 29.34 -4 28.68 -4 28 C-4.66 28 -5.32 28 -6 28 C-6 22.72 -6 17.44 -6 12 C-5.34 12 -4.68 12 -4 12 C-4 10.02 -4 8.04 -4 6 C-3.34 6 -2.68 6 -2 6 C-2 5.34 -2 4.68 -2 4 C-1.34 4 -0.68 4 0 4 C0 2.68 0 1.36 0 0 Z " fill="#F2CF98" transform="translate(59,22)"/>
<path d="M0 0 C5.28 0 10.56 0 16 0 C16 5.28 16 10.56 16 16 C16.66 16 17.32 16 18 16 C18 17.32 18 18.64 18 20 C10.74 20 3.48 20 -4 20 C-4 18.68 -4 17.36 -4 16 C-2.68 16 -1.36 16 0 16 C0 10.72 0 5.44 0 0 Z " fill="#DBA463" transform="translate(31,68)"/>
<path d="M0 0 C3.3 0 6.6 0 10 0 C10 0.66 10 1.32 10 2 C11.32 2 12.64 2 14 2 C14 2.66 14 3.32 14 4 C14.66 4 15.32 4 16 4 C16 5.32 16 6.64 16 8 C16.66 8 17.32 8 18 8 C18 9.32 18 10.64 18 12 C17.34 12 16.68 12 16 12 C16 12.66 16 13.32 16 14 C15.34 14 14.68 14 14 14 C14 14.66 14 15.32 14 16 C12.02 16 10.04 16 8 16 C8 14.68 8 13.36 8 12 C7.34 12 6.68 12 6 12 C6 11.34 6 10.68 6 10 C4.68 10 3.36 10 2 10 C2 10.66 2 11.32 2 12 C1.34 12 0.68 12 0 12 C0 12.66 0 13.32 0 14 C-1.32 14 -2.64 14 -4 14 C-4 13.34 -4 12.68 -4 12 C-4.66 12 -5.32 12 -6 12 C-6 9.36 -6 6.72 -6 4 C-5.34 4 -4.68 4 -4 4 C-4 3.34 -4 2.68 -4 2 C-2.68 2 -1.36 2 0 2 C0 1.34 0 0.68 0 0 Z " fill="#6C3F39" transform="translate(41,14)"/>
<path d="M0 0 C0.66 0 1.32 0 2 0 C2 6.6 2 13.2 2 20 C3.32 20 4.64 20 6 20 C6 21.32 6 22.64 6 24 C2.04 24 -1.92 24 -6 24 C-6 22.68 -6 21.36 -6 20 C-7.32 20 -8.64 20 -10 20 C-10 14.72 -10 9.44 -10 4 C-7.36 4 -4.72 4 -2 4 C-2 3.34 -2 2.68 -2 2 C-1.34 2 -0.68 2 0 2 C0 1.34 0 0.68 0 0 Z " fill="#D79F60" transform="translate(63,64)"/>
<path d="M0 0 C3.3 0 6.6 0 10 0 C10 0.66 10 1.32 10 2 C11.32 2 12.64 2 14 2 C14 2.66 14 3.32 14 4 C14.66 4 15.32 4 16 4 C16 6.64 16 9.28 16 12 C15.34 12 14.68 12 14 12 C14 12.66 14 13.32 14 14 C12.68 14 11.36 14 10 14 C10 13.34 10 12.68 10 12 C9.34 12 8.68 12 8 12 C8 11.34 8 10.68 8 10 C6.68 10 5.36 10 4 10 C4 10.66 4 11.32 4 12 C3.34 12 2.68 12 2 12 C2 13.32 2 14.64 2 16 C1.34 16 0.68 16 0 16 C0 14.02 0 12.04 0 10 C-1.32 10 -2.64 10 -4 10 C-4 9.34 -4 8.68 -4 8 C-4.66 8 -5.32 8 -6 8 C-6 6.68 -6 5.36 -6 4 C-5.34 4 -4.68 4 -4 4 C-4 3.34 -4 2.68 -4 2 C-2.68 2 -1.36 2 0 2 C0 1.34 0 0.68 0 0 Z " fill="#71413B" transform="translate(75,14)"/>
<path d="M0 0 C1.98 0 3.96 0 6 0 C6 1.32 6 2.64 6 4 C5.34 4 4.68 4 4 4 C4 5.98 4 7.96 4 10 C4.66 10 5.32 10 6 10 C6 10.66 6 11.32 6 12 C6.66 12 7.32 12 8 12 C8 12.66 8 13.32 8 14 C7.34 14 6.68 14 6 14 C6 14.66 6 15.32 6 16 C5.34 16 4.68 16 4 16 C4 18.64 4 21.28 4 24 C3.34 24 2.68 24 2 24 C2 23.34 2 22.68 2 22 C1.34 22 0.68 22 0 22 C0 20.68 0 19.36 0 18 C-0.66 18 -1.32 18 -2 18 C-2 16.68 -2 15.36 -2 14 C-2.66 14 -3.32 14 -4 14 C-4 11.36 -4 8.72 -4 6 C-3.34 6 -2.68 6 -2 6 C-2 4.68 -2 3.36 -2 2 C-1.34 2 -0.68 2 0 2 C0 1.34 0 0.68 0 0 Z " fill="#6E403A" transform="translate(17,36)"/>
<path d="M0 0 C4.62 0 9.24 0 14 0 C14 4.62 14 9.24 14 14 C12.68 14 11.36 14 10 14 C10 10.7 10 7.4 10 4 C8.68 4 7.36 4 6 4 C6 7.3 6 10.6 6 14 C4.02 14 2.04 14 0 14 C0 9.38 0 4.76 0 0 Z " fill="#AE6D37" transform="translate(31,70)"/>
<path d="M0 0 C1.98 0 3.96 0 6 0 C6 0.66 6 1.32 6 2 C6.66 2 7.32 2 8 2 C8 1.34 8 0.68 8 0 C9.98 0 11.96 0 14 0 C14 0.66 14 1.32 14 2 C14.66 2 15.32 2 16 2 C16 3.98 16 5.96 16 8 C15.34 8 14.68 8 14 8 C14 8.66 14 9.32 14 10 C12.02 10 10.04 10 8 10 C8 9.34 8 8.68 8 8 C7.34 8 6.68 8 6 8 C6 8.66 6 9.32 6 10 C4.02 10 2.04 10 0 10 C0 9.34 0 8.68 0 8 C-0.66 8 -1.32 8 -2 8 C-2 6.02 -2 4.04 -2 2 C-1.34 2 -0.68 2 0 2 C0 1.34 0 0.68 0 0 Z " fill="#FFFFFF" transform="translate(59,30)"/>
<path d="M0 0 C2.64 0 5.28 0 8 0 C8 0.66 8 1.32 8 2 C9.32 2 10.64 2 12 2 C12 3.32 12 4.64 12 6 C11.34 6 10.68 6 10 6 C10 6.66 10 7.32 10 8 C8.68 8 7.36 8 6 8 C6 7.34 6 6.68 6 6 C5.34 6 4.68 6 4 6 C4 5.34 4 4.68 4 4 C2.68 4 1.36 4 0 4 C0 4.66 0 5.32 0 6 C-0.66 6 -1.32 6 -2 6 C-2 7.32 -2 8.64 -2 10 C-2.66 10 -3.32 10 -4 10 C-4 8.02 -4 6.04 -4 4 C-5.32 4 -6.64 4 -8 4 C-8 3.34 -8 2.68 -8 2 C-5.36 2 -2.72 2 0 2 C0 1.34 0 0.68 0 0 Z " fill="#322B28" transform="translate(79,20)"/>
<path d="M0 0 C5.28 0 10.56 0 16 0 C16 5.28 16 10.56 16 16 C16.66 16 17.32 16 18 16 C18 17.32 18 18.64 18 20 C16.02 20 14.04 20 12 20 C12 18.68 12 17.36 12 16 C12.66 16 13.32 16 14 16 C14 11.38 14 6.76 14 2 C9.38 2 4.76 2 0 2 C0 1.34 0 0.68 0 0 Z " fill="#DDA868" transform="translate(31,68)"/>
<path d="M0 0 C1.98 0 3.96 0 6 0 C6 0.66 6 1.32 6 2 C6.66 2 7.32 2 8 2 C8 3.98 8 5.96 8 8 C7.34 8 6.68 8 6 8 C6 8.66 6 9.32 6 10 C4.02 10 2.04 10 0 10 C0 9.34 0 8.68 0 8 C-0.66 8 -1.32 8 -2 8 C-2 6.02 -2 4.04 -2 2 C-1.34 2 -0.68 2 0 2 C0 1.34 0 0.68 0 0 Z " fill="#1F1B1E" transform="translate(69,44)"/>
<path d="M0 0 C1.98 0 3.96 0 6 0 C6 3.3 6 6.6 6 10 C4.02 10 2.04 10 0 10 C0 9.34 0 8.68 0 8 C-0.66 8 -1.32 8 -2 8 C-2 6.02 -2 4.04 -2 2 C-1.34 2 -0.68 2 0 2 C0 1.34 0 0.68 0 0 Z " fill="#FFFFFF" transform="translate(59,30)"/>
<path d="M0 0 C1.32 0 2.64 0 4 0 C4 5.28 4 10.56 4 16 C2.68 16 1.36 16 0 16 C0 10.72 0 5.44 0 0 Z " fill="#8F5A11" transform="translate(53,68)"/>
<path d="M0 0 C0.66 0 1.32 0 2 0 C2 1.32 2 2.64 2 4 C1.34 4 0.68 4 0 4 C0 4.66 0 5.32 0 6 C-0.66 6 -1.32 6 -2 6 C-2 9.96 -2 13.92 -2 18 C-1.34 18 -0.68 18 0 18 C0 19.32 0 20.64 0 22 C-1.32 22 -2.64 22 -4 22 C-4 15.4 -4 8.8 -4 2 C-2.68 2 -1.36 2 0 2 C0 1.34 0 0.68 0 0 Z " fill="#BB7547" transform="translate(61,66)"/>
<path d="M0 0 C2.64 0 5.28 0 8 0 C8 0.66 8 1.32 8 2 C9.32 2 10.64 2 12 2 C12 2.66 12 3.32 12 4 C12.66 4 13.32 4 14 4 C14 4.66 14 5.32 14 6 C13.34 6 12.68 6 12 6 C12 6.66 12 7.32 12 8 C10.02 8 8.04 8 6 8 C6 6.68 6 5.36 6 4 C5.34 4 4.68 4 4 4 C4 3.34 4 2.68 4 2 C2.68 2 1.36 2 0 2 C0 1.34 0 0.68 0 0 Z " fill="#322B28" transform="translate(43,22)"/>
<path d="M0 0 C1.32 0 2.64 0 4 0 C4 4.62 4 9.24 4 14 C2.68 14 1.36 14 0 14 C0 9.38 0 4.76 0 0 Z " fill="#8F5A11" transform="translate(41,70)"/>
<path d="M0 0 C0.66 0 1.32 0 2 0 C2 0.66 2 1.32 2 2 C2.66 2 3.32 2 4 2 C4 2.66 4 3.32 4 4 C3.34 4 2.68 4 2 4 C2 4.66 2 5.32 2 6 C1.34 6 0.68 6 0 6 C0 8.64 0 11.28 0 14 C-0.66 14 -1.32 14 -2 14 C-2 13.34 -2 12.68 -2 12 C-2.66 12 -3.32 12 -4 12 C-4 10.68 -4 9.36 -4 8 C-4.66 8 -5.32 8 -6 8 C-6 7.34 -6 6.68 -6 6 C-4.68 6 -3.36 6 -2 6 C-2 5.34 -2 4.68 -2 4 C-1.34 4 -0.68 4 0 4 C0 2.68 0 1.36 0 0 Z " fill="#322B28" transform="translate(21,46)"/>
<path d="M0 0 C3.3 0 6.6 0 10 0 C10 1.32 10 2.64 10 4 C6.7 4 3.4 4 0 4 C0 2.68 0 1.36 0 0 Z " fill="#E0AD6E" transform="translate(27,84)"/>
<path d="M0 0 C1.98 0 3.96 0 6 0 C6 1.32 6 2.64 6 4 C4.02 4 2.04 4 0 4 C0 2.68 0 1.36 0 0 Z " fill="#C58450" transform="translate(37,84)"/>
<path d="M0 0 C0.66 0 1.32 0 2 0 C2 1.98 2 3.96 2 6 C0.68 6 -0.64 6 -2 6 C-2 4.68 -2 3.36 -2 2 C-1.34 2 -0.68 2 0 2 C0 1.34 0 0.68 0 0 Z " fill="#141013" transform="translate(69,32)"/>
<path d="M0 0 C0.66 0 1.32 0 2 0 C2 1.98 2 3.96 2 6 C0.68 6 -0.64 6 -2 6 C-2 4.68 -2 3.36 -2 2 C-1.34 2 -0.68 2 0 2 C0 1.34 0 0.68 0 0 Z " fill="#141013" transform="translate(63,32)"/>
</svg>
